<svg width="400" height="240" viewBox="0 0 400 240" fill="none" xmlns="http://www.w3.org/2000/svg">
<path d="M29.8652 196.617H38.8216V199.029H33.3028V201.633H38.5122V204.083H33.3028V207.023H39.0292V209.509H29.8652V196.617ZM346.454 196.617H356.276V199.193H353.084V209.509H349.646V199.193H346.454V196.617ZM317.268 196.617H321.56L325.296 204.347C325.422 204.607 325.572 204.969 325.742 205.431C325.912 205.895 326.098 206.461 326.306 207.131C326.194 206.495 326.116 205.913 326.064 205.381C326.012 204.847 325.986 204.363 325.986 203.919V196.617H329.09V209.509H324.816L320.936 201.497C320.752 201.129 320.586 200.729 320.434 200.295C320.286 199.863 320.146 199.391 320.018 198.883C320.14 199.651 320.23 200.357 320.286 201.001C320.344 201.645 320.372 202.215 320.372 202.705V209.509H317.268V196.617ZM292.286 196.617H301.244V199.029H295.724V201.633H300.934V204.083H295.724V207.023H301.45V209.509H292.286V196.617ZM261.176 196.617H266.17L268.412 204.365C268.502 204.675 268.57 205.019 268.626 205.403C268.682 205.787 268.722 206.201 268.748 206.641C268.79 206.165 268.844 205.725 268.904 205.321C268.97 204.919 269.04 204.575 269.12 204.291L271.366 196.617H276.28V209.509H273.206V200.853C273.206 200.441 273.218 200.017 273.242 199.573C273.266 199.131 273.298 198.661 273.344 198.159C273.266 198.545 273.18 198.917 273.094 199.271C273.008 199.623 272.914 199.959 272.816 200.275L270.054 209.509H267.118L264.416 200.425C264.324 200.113 264.234 199.763 264.148 199.379C264.062 198.995 263.98 198.589 263.906 198.159C263.948 198.769 263.98 199.321 264.006 199.807C264.032 200.293 264.044 200.661 264.044 200.909V209.509H261.176V196.617ZM233.28 196.617H237.572L241.308 204.347C241.434 204.607 241.584 204.969 241.754 205.431C241.924 205.895 242.11 206.461 242.318 207.131C242.206 206.495 242.128 205.913 242.076 205.381C242.024 204.849 241.998 204.363 241.998 203.919V196.617H245.102V209.509H240.828L236.948 201.497C236.768 201.127 236.596 200.729 236.446 200.295C236.296 199.863 236.158 199.391 236.03 198.883C236.152 199.651 236.24 200.359 236.296 201.001C236.354 201.645 236.384 202.217 236.384 202.705V209.509H233.28V196.617ZM213.121 196.617H216.558V209.509H213.121V196.617ZM191.451 199.493L189.782 204.329H193.065L191.451 199.493ZM189.444 196.617H193.591L198.472 209.509H194.799L193.883 206.777H188.918L187.958 209.509H184.555L189.444 196.617ZM161.252 196.617H171.075V199.193H167.882V209.509H164.444V199.193H161.252V196.617ZM139.533 198.883V202.187H140.74C141.484 202.187 142.041 202.055 142.413 201.785C142.784 201.515 142.97 201.111 142.97 200.571C142.97 199.993 142.762 199.565 142.348 199.293C141.936 199.019 141.279 198.883 140.384 198.883H139.533ZM136.166 196.617H141.291C142.998 196.617 144.265 196.893 145.088 197.447C145.915 198.001 146.327 198.843 146.327 199.973C146.327 200.809 146.11 201.495 145.674 202.033C145.237 202.573 144.609 202.931 143.787 203.115C144.463 203.361 145.008 204.065 145.42 205.225C145.42 205.233 145.42 205.235 145.42 205.235L146.962 209.509H143.379L142.245 205.979C142.063 205.413 141.815 205.019 141.502 204.799C141.186 204.581 140.697 204.473 140.031 204.473H139.533V209.509H136.166V196.617ZM110.58 196.617H119.537V199.029H114.018V201.633H119.227V204.083H114.018V207.023H119.744V209.509H110.58V196.617ZM84.7052 196.617H94.5288V199.193H91.3358V209.509H87.8982V199.193H84.7052V196.617ZM55.4508 196.617H59.743L63.478 204.347C63.6052 204.607 63.7538 204.969 63.924 205.431C64.0944 205.895 64.2804 206.461 64.4876 207.131C64.3764 206.495 64.2986 205.913 64.2464 205.381C64.1936 204.847 64.1688 204.363 64.1688 203.919V196.617H67.272V209.509H62.998L59.1176 201.497C58.9348 201.129 58.7676 200.729 58.616 200.295C58.4672 199.863 58.3282 199.391 58.201 198.883C58.3218 199.651 58.4116 200.357 58.4672 201.001C58.5262 201.645 58.554 202.215 58.554 202.705V209.509H55.4508V196.617Z" fill="white" stroke="black" stroke-width="0.432054"/>
<path fill-rule="evenodd" clip-rule="evenodd" d="M116.177 157.231C116.177 157.231 116.876 160.309 118.601 159.149C120.326 157.991 121.026 156.253 122.751 156.253C124.476 156.253 131.668 154.901 133.393 156.253C135.118 157.605 135.291 156.445 136.154 156.445C137.016 156.445 139.55 156.895 139.55 156.895C141.756 156.665 141.306 153.159 139.712 152.133C137.411 150.331 134.313 149.173 132.013 147.369C131.782 145.631 131.553 143.893 131.323 142.155C131.955 141.255 132.588 140.353 133.221 139.451C133.221 136.556 133.221 133.659 133.221 130.762C132.876 129.989 132.53 129.217 132.185 128.444C132.07 126.256 131.955 124.068 131.84 121.879C131.553 121.492 131.265 121.106 130.978 120.72C130.978 119.884 130.978 119.047 130.978 118.209C131.553 117.373 132.718 116.536 133.293 115.699C133.466 114.09 132.695 112.954 132.867 111.345C132.464 109.285 132.415 106.752 132.013 104.692C132.013 102.181 132.013 99.6707 132.013 97.1605C133.682 96.6629 134.086 95.9233 134.205 95.1749C134.359 94.2117 133.887 93.0779 133.393 90.7875C133.163 78.7503 133.051 66.2392 132.821 54.2016C133.739 52.763 134.839 52.0189 134.862 50.9531C134.88 50.1233 133.989 49.4315 132.876 48.4957C132.876 47.6589 132.876 46.8225 132.876 45.9851C132.876 45.9851 134.774 42.1227 136.326 42.1227C137.879 42.1227 138.914 40.9643 138.914 39.8057C140.331 36.9907 137.361 36.7157 137.361 36.7157C134.075 36.6475 130.353 36.8157 127.147 36.7481C124.319 36.6879 121.998 36.3901 119.246 36.3295C118.038 36.3943 116.83 36.458 115.622 36.5224C112.654 37.4238 113.278 39.0357 114.415 39.9361C115.795 40.8049 116.973 41.8 118.555 41.8332C120.487 41.8734 122.025 42.5065 122.696 44.4401C122.869 52.1647 123.041 59.8895 123.214 67.6139C123.271 73.3109 123.447 79.0083 123.504 84.7043C123.562 90.4007 123.502 96.0981 123.559 101.795C123.674 108.49 123.789 115.184 123.904 121.879C123.904 121.879 123.559 124.389 123.041 124.969C122.524 125.548 122.696 130.569 122.696 130.569C124.607 132.233 124.201 132 122.869 134.238C122.753 139.195 122.638 144.151 122.524 149.107C122.064 150.009 121.603 150.911 121.143 151.811C121.143 151.811 116.177 154.721 116.177 157.231ZM32.6226 181.237C30.0642 180.711 29.5845 179.473 30.4933 178.743C31.0386 178.305 32.4963 178.321 33.1517 178.015C34.1107 177.563 35.0904 176.971 35.6678 176.257C36.6546 175.035 36.056 172.207 37.2336 169.903C38.3652 160.183 38.7042 147.305 37.5732 142.973C36.8942 136.297 37.5912 114.12 37.5912 111.309C38.3426 109.959 38.6245 109.848 38.6303 107.482C38.6323 106.557 39.2546 105.118 38.5918 103.974C37.6304 102.877 37.9209 98.5855 37.8457 96.1665C37.7345 92.5657 37.9988 92.5953 39.0008 89.3329C39.378 88.1057 39.5058 86.6455 39.0008 85.4685C38.1844 83.5667 37.004 85.764 37.0826 81.9444C37.2752 72.6754 37.6208 63.3503 37.377 54.0851C37.4298 53.2595 38.8047 53.1087 39.0739 52.3283C39.4161 51.3361 39.5295 50.1089 39.0739 49.1665C38.8159 48.6323 37.3719 49.3271 36.9483 48.9223C34.3595 46.4487 31.1065 44.8949 29.6064 41.5945C29.0249 40.3145 29.9627 37.4819 31.1953 36.8697C33.2375 35.8551 37.036 36.9039 39.2704 36.5185C40.472 36.3115 41.2324 35.5965 42.4496 35.5429C51.9434 35.1247 61.7128 34.1756 71.1726 35.1128C72.6868 35.2628 73.1859 37.9343 74.5661 38.5975C76.4581 39.5067 79.2248 39.3119 80.675 40.8635C82.9996 43.3495 84.6674 45.3975 84.9624 48.8437C85.3244 53.0729 86.0511 57.8631 86.0155 61.1117C85.9855 63.8321 85.168 66.2874 83.9552 68.6272C82.294 71.834 80.3165 74.8267 78.1751 77.9945C76.9407 79.8201 74.7438 81.5151 74.2268 83.5971C73.6926 85.7493 79.2529 84.1692 80.3905 86.0536C81.4839 87.8652 79.4577 89.9879 80.0689 92.0293C80.6147 93.8499 83.7674 94.0273 84.1416 95.8937C85.1072 100.711 82.9765 105.805 83.8023 110.649C84.0663 112.201 86.5276 112.256 86.7668 113.812C87.0572 117.173 86.9534 120.732 86.9796 124.303C87.007 128.104 87.1543 131.923 87.1057 135.536C87.0123 136.899 85.2289 137.695 85.0697 139.049C84.6449 142.655 85.8839 146.727 85.0877 150.263C84.2487 153.987 81.2548 156.617 80.0868 160.245C79.0752 163.387 79.3622 167.975 77.7296 169.945C75.0296 170.793 71.6688 172.693 69.542 174.277C66.4342 176.589 64.4474 179.239 63.492 179.323C62.278 180.403 59.7098 179.681 58.2046 180.243C56.8166 180.759 56.6857 181.923 55.2221 181.733C54.0663 181.585 54.4266 180.625 53.5252 179.863C53.0004 179.417 51.9912 179.389 51.489 179.863C48.4426 182.315 50.7148 181.673 47.2556 181.353C43.7416 181.029 36.9003 182.113 32.6226 181.237ZM52.3086 167.135C53.1006 165.613 53.8926 164.091 54.6848 162.567C54.458 157.533 54.232 152.497 54.0056 147.461C54.6848 146.523 55.3634 145.587 56.042 144.649C56.042 139.577 56.042 134.505 56.042 129.433C56.042 127.127 55.7206 124.821 55.7206 122.516C53.3382 120.545 54.4773 120.574 56.3991 118.3C56.3991 116.075 56.9358 114.28 56.9358 112.055C56.709 110.181 56.483 108.307 56.2566 106.434C56.5964 105.497 56.9357 104.56 57.2749 103.623C57.2749 100.805 57.5963 98.5251 57.5963 95.7069C57.5963 93.0609 57.673 92.1745 58.1568 92.3403C58.6406 92.5059 59.5321 93.7248 61.1599 95.2898C62.3967 96.4792 63.6344 97.6693 64.8716 98.8583C67.157 101.054 69.3823 101.254 68.4561 104.853C67.5905 108.219 70.0783 109.153 69.3051 112.494C68.7145 115.046 67.9381 116.606 68.1101 118.188C68.2127 119.137 68.6575 120.094 69.6867 121.278C70.6381 122.371 70.9552 122.303 70.3866 123.649C69.5048 125.735 68.7531 126.952 68.6649 128.204C68.5513 129.813 69.4279 130.552 70.1967 133.395C70.8259 135.72 70.767 137.261 70.1848 139.593C69.4954 142.359 68.806 145.125 68.1164 147.891C68.0388 149.983 67.8482 152.077 67.6996 154.171C67.4748 157.361 67.0495 157.443 64.8313 159.723C62.8161 161.795 60.2226 163.567 58.2784 165.419C56.1292 166.239 54.458 166.315 52.3086 167.135ZM57.5009 78.3657C59.2227 78.4163 59.9928 78.5867 60.5266 78.3669C61.0606 78.1465 61.3587 77.5355 62.1375 76.0249C63.1433 74.0717 64.6331 71.6309 65.8687 71.4473C67.9503 71.1383 69.0363 70.8285 69.0363 70.8285C69.0363 70.8285 70.1257 70.6221 69.7531 67.9375C69.3801 65.2529 68.612 62.6713 69.289 61.9487C69.9654 61.2261 70.1084 59.1611 69.3882 58.3349C68.6688 57.5093 67.9844 56.6829 69.1472 55.5473C70.3098 54.4115 71.1114 52.5101 68.3332 52.8201C65.5552 53.1299 65.5896 51.9275 65.2686 51.1011C64.9472 50.2753 61.917 50.4639 60.3326 50.3729C58.7498 50.6827 57.4188 50.5793 57.4644 52.2311C57.5106 53.8829 57.2444 61.8457 57.2672 62.6717C57.29 63.4977 57.5009 78.3657 57.5009 78.3657ZM145.377 150.847C145.253 151.549 143.641 151.553 143.765 152.257C143.938 153.239 144.003 154.773 144.992 154.901C147.862 155.273 151.797 154.131 154.642 154.657C155.766 154.865 155.828 156.781 156.858 157.275C157.704 157.261 159.007 157.291 160.081 157.275C160.907 156.845 160.685 155.329 161.491 154.859C162.483 154.279 163.837 154.059 164.915 154.455C165.496 154.669 164.703 156.195 165.318 156.269C170.338 156.079 174.823 156.629 179.573 156.269C180.522 156.113 179.555 154.755 180.333 154.191C181.216 153.549 183.406 154.669 183.555 153.587C184.327 147.993 183.123 141.747 183.648 136.126C183.816 134.327 185.543 133.26 185.929 131.494C186.057 130.905 186.763 130.895 186.819 130.315C187.014 128.298 186.978 125.852 186.468 123.865C185.791 123.171 183.722 122.919 183.044 123.235C182.279 123.798 182.974 125.797 182.461 126.595C182.207 126.99 181.303 126.199 181.051 126.595C180.804 126.985 181.123 127.624 181.237 128.129C181.305 128.432 181.299 128.688 181.051 128.811C179.73 129.471 177.785 127.904 176.62 128.811C175.476 129.701 176.76 131.422 175.792 132.5C174.224 134.249 170.863 135.273 169.3 137.027C167.442 139.111 167.608 141.239 165.473 143.039C163.802 144.447 160.963 144.595 158.938 145.417C156.59 146.371 155.469 148.129 153.031 148.815C152.294 149.023 151.395 147.735 151.621 147.003C153.448 141.081 155.822 135.127 157.794 129.252C159.059 125.482 159.653 123.104 161.02 119.37C162.435 115.505 164.282 110.728 166.592 107.322C167.047 106.651 168.564 107.089 168.808 106.315C169.411 104.393 168.281 102.216 168.808 100.272C169.197 98.8333 170.711 97.4525 171.965 96.6463C172.812 96.1019 174.164 96.8605 174.538 95.9257C175.411 93.7433 174.595 91.4314 175.145 89.146C175.515 87.6064 176.573 86.6629 177.246 85.2289C178.139 83.3255 178.074 81.6732 179.059 79.8158C179.861 78.3046 181.548 76.1895 182.034 74.5485C182.702 72.2951 182.155 71.1891 182.372 68.8487C182.43 68.2187 183.353 67.8699 183.379 67.2373C183.692 59.6573 184.093 52.0504 183.648 44.4762C183.612 43.859 182.226 43.8857 182.238 43.2677C182.286 40.9531 182.567 38.9081 182.439 36.8221C182.415 36.4145 182.556 36.0806 182.148 36.0636C175.841 35.799 169.615 35.9427 163.304 36.0163C158.134 36.0761 152.951 35.6617 147.794 36.0163C147.013 36.0699 146.314 36.204 145.779 36.7746C145.267 37.322 145.012 38.4903 145.042 39.2391C145.178 42.6053 144.974 46.2701 145.042 50.3177C145.054 51.0677 146.532 50.6189 146.787 51.3249C147.497 53.2913 147.551 55.4851 147.391 57.5691C147.34 58.2387 146.526 59.1403 146.542 59.8107C146.865 62.1409 147.167 63.7876 147.592 66.029C147.837 66.8958 148.583 67.5729 148.801 68.4463C149.061 69.4903 148.109 71.5993 149.182 71.6691C149.539 71.6919 150.782 71.8997 151.419 71.6691C152.239 71.3721 151.118 69.8695 151.419 69.0505C151.633 68.4699 152.731 68.4525 152.829 67.8421C153.362 64.5253 152.437 60.6386 152.963 57.3202C153.123 56.309 153.703 55.2409 154.574 54.7019C155.316 54.2429 156.657 55.3905 157.193 54.7019C157.935 53.7465 157.205 52.6459 157.664 51.5263C158.321 49.9241 159.391 48.4467 160.685 47.2963C161.874 46.2393 163.064 44.9743 164.646 44.8097C168.182 44.4423 172.413 44.772 177.202 44.5658C177.651 44.5458 177.772 45.2363 177.807 45.6849C177.976 47.8939 178.378 50.8951 177.807 52.3321C176.977 54.4177 175.101 56.7455 173.196 58.9115C171.893 60.3925 170.575 61.7033 169.57 63.1879C168.364 64.9677 170.165 67.3947 169.548 69.4535C168.916 71.5595 167.191 73.7981 165.854 75.5437C164.757 76.9757 163.145 77.7087 162.117 79.1905C160.833 81.0407 160.086 82.8627 159.275 84.9635C158.601 86.7103 158.167 88.5539 157.865 90.4021C157.627 91.8615 158.325 93.5115 157.664 94.8335C157.18 95.8019 156.087 95.6233 155.383 96.4449C154.406 97.5849 153.834 99.0462 153.369 100.473C152.817 102.164 152.772 103.165 151.912 104.72C150.947 106.465 149.009 108.15 148.131 109.94C147.174 111.893 147.064 114.265 146.585 116.386C146.122 118.437 145.735 120.369 145.311 122.429C144.793 124.95 144.251 127.511 144.304 130.083C144.32 130.866 145.148 131.405 145.513 132.098C145.821 132.682 146.527 133.284 146.319 133.911C146.033 134.767 144.432 134.829 144.304 135.724C144.173 136.647 144.408 137.499 145.085 138.141C145.675 138.697 146.878 138.455 147.301 139.147C147.756 139.893 147.675 140.977 147.301 141.765C146.991 142.423 145.9 142.263 145.758 142.975C145.179 145.873 145.89 147.937 145.377 150.847ZM320.021 179.393C319.643 178.193 320.587 177.959 321.215 177.333C322.133 176.417 323.021 175.523 323.385 173.719C323.523 173.035 324.223 171.929 324.385 170.833C324.623 169.233 324.259 167.565 323.823 166.531C323.251 165.177 322.313 164.471 322.653 163.179C322.773 162.353 324.641 162.251 326.113 161.597C326.885 161.255 327.547 160.585 327.793 159.955C328.115 159.125 327.043 159.267 326.497 158.213C325.915 157.091 325.829 155.411 325.381 154.575C324.599 153.119 323.169 151.165 323.117 149.511C322.977 145.099 324.255 140.645 324.419 136.4C324.557 132.841 325.399 131.992 325.127 128.345C324.993 126.529 324.017 125.207 323.009 123.353C322.175 121.816 321.079 120.295 320.659 118.846C319.913 116.266 320.663 113.209 320.211 110.562C320.123 110.043 318.823 109.408 318.775 108.884C318.439 105.25 318.849 101.529 318.615 97.9355C318.495 97.2593 317.947 97.1305 317.883 96.4469C317.693 94.4323 317.881 92.4703 317.875 90.7289C317.869 89.1921 317.657 87.8789 317.657 86.0931C317.657 85.4273 317.105 84.9713 317.083 84.3055C316.949 80.3759 317.113 76.0367 317.061 72.1007C317.005 67.9105 316.749 64.1229 317.083 59.9505C317.141 59.2471 318.563 59.2641 318.535 58.5593C318.403 55.3621 318.127 54.0905 318.201 50.8747C318.209 50.5037 318.969 49.6415 318.999 49.2715C319.221 46.5961 319.553 43.9181 318.871 41.6285C318.379 39.9701 317.135 39.4535 315.707 38.3837C314.447 37.4387 313.041 35.9025 311.875 35.0415C310.383 33.9389 309.389 33.0521 308.259 31.4009C307.579 30.4071 308.701 30.3203 309.953 30.2837C311.561 30.2367 313.317 30.3771 314.847 30.6167C315.365 30.6977 316.339 31.5903 316.829 31.7801C318.009 32.2377 318.781 31.6435 319.989 32.0205C320.911 32.3087 324.761 34.3159 325.797 34.9129C327.213 35.7285 327.671 36.9137 329.149 37.6065C329.415 37.7311 333.981 39.038 334.511 39.1706C335.747 39.4792 336.515 38.5755 337.751 38.8841C339.187 39.2421 341.741 39.9654 343.353 40.448C344.261 40.7196 344.835 41.7929 345.765 41.9781C350.275 42.8781 349.469 41.3747 353.041 44.9461C354.093 45.9985 355.831 46.8437 356.615 48.1083C357.723 49.8929 357.839 52.0803 358.543 54.0253C359.091 55.5375 360.315 56.7797 360.605 58.3865C361.387 62.7107 360.571 67.2072 361.101 71.5694C361.263 72.9018 362.633 74.3073 362.777 75.6421C363.323 80.7521 363.415 85.7979 362.793 90.8991C362.583 92.6185 361.135 93.3179 360.877 95.0307C360.447 97.9039 361.305 100.846 361.101 103.745C361.005 105.133 360.233 106.582 359.505 107.767C358.973 108.629 357.757 108.94 357.367 109.874C356.341 112.326 356.599 115.679 356.123 118.336C355.975 123.407 356.079 127.341 356.297 132.409C356.451 135.981 356.817 139.187 356.361 142.733C356.201 143.961 355.173 144.635 354.989 145.861C354.481 149.249 354.917 152.729 354.589 156.139C354.533 156.719 353.673 157.391 353.551 157.961C353.323 161.077 353.105 165.625 351.747 169.133C350.853 171.447 348.679 173.779 346.591 175.119C344.569 176.417 342.395 176.697 340.065 177.291C338.593 177.665 336.945 177.485 335.597 178.183C334.789 178.603 335.331 178.609 334.593 179.137C334.167 179.439 333.431 179.465 333.029 179.137C332.461 178.671 332.637 178.481 331.975 178.167C330.965 177.689 329.649 177.727 328.623 178.167C327.883 178.485 328.153 179.063 327.361 179.217C325.763 179.529 323.891 179.933 322.163 179.887C321.129 179.861 320.313 180.327 320.021 179.393ZM335.019 64.6491C337.263 64.5303 337.703 64.4085 339.701 65.4817C341.767 66.5895 342.199 67.3203 343.461 69.3221C344.113 69.9501 344.763 70.5784 345.413 71.206C348.067 73.7676 349.319 77.3831 350.403 80.7709C350.581 84.4489 351.371 90.8924 349.535 94.2298C348.619 95.8958 348.257 97.1817 348.101 98.5953C347.667 102.55 346.545 101.933 345.403 104.928C345.093 105.74 345.161 106.751 345.133 108.68C345.033 115.565 344.931 122.451 344.831 129.337C344.767 133.736 343.939 135.835 342.161 139.897C341.117 141.839 340.569 143.091 340.569 145.295C340.569 147.907 340.035 149.111 338.997 151.491C338.365 152.939 337.731 154.389 337.099 155.839C336.349 157.557 335.661 158.173 335.163 157.943C334.665 157.715 334.357 156.637 334.365 154.969C334.409 146.563 334.453 138.159 334.497 129.753C334.593 120.816 334.689 111.88 334.785 102.943C334.673 101.024 334.745 100.599 333.485 99.1755C333.367 96.2825 332.809 94.9739 331.893 92.2195C330.737 90.0477 330.869 88.4633 330.841 85.9805C330.769 79.7695 330.695 73.5575 330.623 67.3465C330.579 63.5351 331.441 64.8381 335.019 64.6491ZM188.547 171.507C187.856 168.127 188.339 165.441 188.521 162.899C188.607 162.293 189.83 162.859 190.162 162.347C190.657 161.581 191.105 160.531 190.777 159.679C190.581 159.169 190.233 159.873 189.94 159.411C189.534 158.775 189.677 157.747 190.145 157.155C190.828 156.289 192.194 156.513 192.66 155.513C193.296 154.149 192.204 152.433 192.66 150.999C192.805 150.543 193.984 151.465 194.096 150.999C194.628 148.805 193.967 146.461 194.301 144.229C194.389 143.647 194.902 143.377 194.97 142.793C195.255 140.347 195.403 137.831 194.97 135.407C194.701 133.902 193.485 132.818 193.276 131.304C192.514 125.81 192.284 119.829 192.991 114.328C193.54 110.057 196.262 103.453 197.861 99.4551C198.862 96.9541 199.352 97.7341 200.251 95.1943C200.526 94.4181 200.716 93.5135 200.456 92.7323C200.132 91.7593 198.984 91.0155 199.146 90.0025C199.344 88.7615 200.87 88.7927 201.277 87.6031C201.83 85.9859 200.717 84.089 201.277 82.474C201.936 80.5738 204.208 79.4825 204.765 77.5501C205.297 75.7061 204.727 72.7601 205.247 70.9125C206.277 67.2623 207.514 64.9044 209.279 61.547C210.321 59.5646 212.131 57.8897 212.945 55.8023C213.729 53.7911 213.649 51.1284 213.997 49.4422C212.715 47.8394 209.773 50.0764 207.842 49.3794C206.863 49.026 206.866 47.4247 205.897 47.0429C203.821 46.9017 201.836 46.8539 200.358 47.9625C198.375 49.4493 198.359 51.1923 197.584 53.5455C196.426 57.0617 197.309 61.012 195.863 64.4192C195.291 65.7666 192.959 66.1455 191.839 67.0865C191.247 67.5841 190.971 68.1029 190.198 68.1029C189.424 68.1029 188.75 67.8357 188.557 67.0865C188.164 65.5639 188.633 63.9389 188.557 62.3677C188.496 61.1309 187.834 59.8729 188.146 58.6747C188.309 58.0505 189.738 58.2923 189.788 57.6489C190.401 50.5997 189.558 43.5959 189.666 36.8599C189.703 34.4949 190.331 34.8455 192.659 34.8219C196.581 34.7815 202.796 34.8119 207.303 34.7891C215.211 34.7495 223.139 34.4543 231.025 34.6703C232.199 34.7553 233.727 35.1911 233.809 36.3647C233.975 38.7379 232.385 41.0262 231.285 43.1352C230.703 44.2498 229.403 44.9785 228.975 46.1595C228.247 48.1613 229.037 50.5332 228.269 52.5196C227.799 53.7386 225.409 53.9641 224.951 55.1869C224.301 56.9167 225.423 59.0072 224.745 60.7262C224.409 61.5798 222.589 61.0923 222.283 61.9573C221.251 64.8849 221.857 68.1917 221.053 71.1899C220.607 72.8449 219.353 74.0053 219.127 75.7035C218.511 80.3131 219.527 85.0221 219.127 89.6549C219.039 90.6607 217.977 91.3547 217.689 92.3221C217.013 94.5971 216.587 97.0557 215.807 99.2977C215.471 100.266 214.223 100.768 213.961 101.76C213.576 103.214 214.541 104.886 213.961 106.273C213.231 108.018 210.661 108.732 210.268 110.582C209.161 115.804 210.914 121.31 210.099 126.585C209.735 128.946 207.654 130.8 207.227 133.15C206.677 136.178 207.624 139.757 206.87 142.739C206.142 145.619 204.054 148.115 203.008 150.893C202.763 153.619 199.496 156.121 201.277 158.181C203.425 158.465 206.991 158.903 209.484 157.769C210.631 157.249 209.302 154.841 210.304 154.077C213.368 151.737 216.883 150.893 220.321 149.153C222.287 148.157 224.759 147.207 226.513 145.871C227.403 145.191 227.505 143.577 228.563 143.203C229.201 142.977 229.333 144.525 229.999 144.639C232.291 145.029 234.279 144.049 236.529 144.639C237.429 144.875 237.401 146.085 237.635 146.985C237.845 147.791 238.209 148.659 237.761 149.357C237.491 149.777 236.513 149.309 236.323 149.769C235.933 150.717 236.085 151.849 236.323 152.845C236.511 153.621 237.221 154.103 237.287 154.897C237.639 159.055 237.755 163.267 237.287 167.413C237.189 168.283 236.695 169.195 235.825 169.285C229.907 169.013 224.437 169.447 218.511 169.465C217.901 169.411 218.251 168.331 217.689 168.091C216.161 167.435 213.406 167.345 211.784 167.717C209.898 168.149 209.74 169.701 207.842 170.079C204.423 170.763 200.47 170.093 197.022 170.615C195.803 170.799 194.872 171.833 193.676 172.131C192.018 172.545 189.402 172.987 188.547 171.507ZM97.1588 181.143C94.6004 182.041 91.6156 181.145 88.904 181.203C88.0682 181.221 86.7077 181.877 85.9049 181.641C85.0285 181.385 83.6475 179.647 84.1953 178.915C86.3355 176.061 90.5548 175.705 92.5088 172.723C93.658 170.969 92.5815 168.607 93.0753 166.569C93.2269 165.943 94.3238 166.001 94.6482 165.445C94.9118 164.993 94.9892 164.271 94.6482 163.873C93.869 162.963 93.3755 164.871 93.0681 162.147C92.7929 159.711 92.7352 157.237 92.9612 154.803C93.1032 153.253 94.23 153.581 94.443 152.763C94.8396 151.241 94.0143 150.113 94.4229 148.593C94.6061 147.911 95.8704 148.083 96.2206 147.469C96.5544 146.885 96.594 146.009 96.2206 145.447C95.4552 144.299 93.3748 144.317 93.143 142.957C92.7166 140.455 92.945 137.769 92.989 135.287C93.036 132.643 92.8544 129.992 93.075 127.298C93.1156 126.798 94.2469 126.82 94.4229 126.35C94.7643 125.439 94.5483 124.394 94.4229 123.429C94.3225 122.654 94.5605 121.07 94.5011 120.291C94.4101 119.094 93.896 118.65 94.4522 117.587C94.84 116.846 96.1042 117.292 96.2206 116.463C96.8352 112.088 95.5232 107.601 95.9958 103.207C96.076 102.463 97.248 102.581 97.445 101.859C97.7622 100.694 97.8602 99.3548 97.344 98.2638C97.1006 97.7488 95.9521 97.7468 95.9077 97.1786C95.4031 90.7578 96.2811 84.6877 95.7711 78.2669C95.7233 77.6655 94.2465 78.5089 94.2191 75.8995C94.1887 73.1647 93.9368 70.6155 93.9738 68.6053C94.0024 67.0629 97.3302 67.0213 97.295 65.4789C97.2414 63.1285 97.6118 60.4759 97.0702 58.0643C96.8962 57.2889 95.8845 57.4171 95.5465 56.6969C95.2283 56.0205 95.5285 55.3459 95.8197 54.6557C96.1693 53.8251 97.1194 53.3008 97.344 52.4278C97.7552 50.833 97.714 49.0905 97.344 47.4849C97.2228 46.9595 96.3159 46.4461 96.0639 45.9693C95.5971 45.0869 95.8082 44.3081 95.1848 43.5281C94.754 42.9899 93.4819 43.3205 92.9577 42.8731C91.6087 41.7211 90.831 40.4402 89.6996 39.391C88.636 38.4056 87.2024 37.6631 86.383 36.2123C85.8564 35.2803 86.4698 33.6681 87.3208 33.0173C87.9744 32.5177 88.9982 32.6307 89.7242 33.0173C90.3144 33.3321 90.3028 34.5859 90.9648 34.6777C93.8608 35.0811 96.7351 33.8063 99.5907 34.4339C100.836 34.7077 100.902 36.2801 102.062 36.8067C102.839 37.1593 104.238 36.4777 104.944 36.9549C105.981 37.6555 106.861 39.146 107.678 39.9784C108.729 41.0486 109.634 41.5251 110.171 43.0405C110.848 44.9539 110.551 46.9171 110.522 48.9073C110.495 50.6633 110.781 52.4417 110.62 54.2255C110.566 54.8255 109.414 54.5431 109.252 55.1241C108.97 56.1441 109.172 57.2859 109.702 58.2013C110.087 58.8679 111.131 58.5285 111.382 59.2561C111.968 60.9565 112.042 63.0409 111.607 64.7857C111.445 65.4353 110.191 65.0167 110.151 65.6845C109.647 74.1329 109.521 82.6546 110.376 91.0738C110.521 92.505 112.783 93.0147 112.935 94.4443C113.783 102.413 113.011 110.479 112.682 118.486C112.635 119.624 112.071 121.056 111.607 121.906C111.088 122.855 111.41 123.804 111.43 124.853C111.455 126.2 111.294 127.67 111.499 129.046C111.616 129.832 113.215 130.58 113.16 131.372C113.009 133.557 113.319 134.589 113.453 136.743C113.517 137.779 111.629 138.427 111.03 139.275C110.6 139.885 110.338 141.067 110.689 141.727C111.02 142.349 111.614 142.033 111.802 142.713C112.069 143.675 112.091 144.487 111.607 145.361C111.294 145.923 110.143 145.849 110.034 146.483C109.728 148.261 110.738 150.091 110.483 151.877C110.407 152.411 109.215 152.241 109.135 152.775C108.736 155.441 109.587 158.205 109.135 160.863C108.965 161.867 107.41 162.319 107.338 163.335C107.297 163.903 108.642 163.507 108.911 164.009C109.335 164.805 108.27 166.453 109.135 166.705C112.01 167.547 115.568 167.329 118.465 166.569C120.105 166.137 120.8 163.837 122.489 163.677C124.525 163.485 126.027 164.829 128.038 165.189C130.691 165.667 133.593 165.753 136.195 165.053C137.731 164.639 138.623 163.009 140.201 162.799C147.029 161.881 153.366 162.445 160.255 162.409C166.77 162.373 175.104 162.045 179.941 162.573C182.699 162.665 179.708 172.423 180.703 177.577C180.919 178.699 181.878 179.327 182.454 180.365C183.372 182.021 183.729 182.863 181.343 182.853C176.856 182.831 172.315 183.177 167.446 182.971C166.49 182.931 166.536 181.087 165.649 180.723C164.676 180.325 163.524 181.195 162.503 180.949C160.973 180.579 159.249 179.113 157.687 178.927C153.523 178.427 149.327 179.471 145.173 178.897C144.23 178.767 144.1 176.943 143.151 176.873C133.441 176.163 124.137 177.183 114.418 176.653C112.336 176.539 112.146 175.813 110.825 175.429C108.955 174.889 105.611 174.673 103.85 175.499C100.568 177.035 100.578 179.941 97.1588 181.143ZM214.043 143.179C212.015 143.119 211.88 139.861 212.041 137.863C212.206 135.819 214.875 135.926 215.827 134.111C216.521 132.789 215.481 130.465 216.273 129.199C217.125 127.836 219.435 127.886 220.287 126.523C220.775 125.744 220.047 124.249 220.069 123.33C220.123 121.155 220.611 119.552 220.511 117.379C220.459 116.248 219.989 114.206 220.203 113.095C220.497 111.577 221.401 111.945 221.849 110.465C222.407 108.614 221.479 106.507 222.071 104.666C222.307 103.938 224.215 104.304 224.079 103.551C223.913 102.635 222.243 103.128 222.077 102.213C221.571 99.4259 221.543 96.1463 222.295 93.4155C222.765 91.7073 224.703 90.4003 225.195 88.6971C225.709 86.9125 224.621 84.8886 225.195 83.1214C225.583 81.9216 227.565 81.6682 227.871 80.4452C228.591 77.5598 227.949 74.0206 228.699 71.1432C229.093 69.6332 229.881 67.9217 230.847 66.9753C231.427 66.4071 231.949 65.9943 232.221 65.0989C232.593 63.8725 231.679 62.8411 231.889 61.5765C232.075 60.4577 232.929 59.7395 233.471 58.7445C234.157 57.4881 234.443 55.8963 235.101 54.6267C236.061 52.7705 237.353 51.2176 238.041 49.2428C238.555 47.7704 237.451 45.3688 238.109 43.9538C239.041 41.9502 241.449 41.9996 242.367 39.9892C243.109 38.3652 241.811 36.2426 242.591 34.6366C243.157 33.4666 244.435 32.9501 245.733 32.8985C246.685 32.8607 247.841 33.5194 248.165 34.4134C248.803 36.1652 248.227 38.2702 248.949 39.9892C250.215 43.0122 252.411 44.7941 253.629 47.8375C254.263 49.4243 253.577 51.7061 253.965 53.3707C254.493 55.6337 254.863 57.9159 255.611 60.1197C256.539 62.8641 257.869 65.5261 258.649 68.3133C259.339 70.7817 259.505 73.4599 260.037 75.9723C260.427 77.8055 261.139 79.4887 261.771 81.2489C262.041 82.0047 262.955 81.8128 263.173 82.5868C263.555 83.9542 262.407 85.4411 262.727 86.8245C263.107 88.4775 264.887 90.1525 265.179 91.8233C265.655 94.5323 265.159 97.1235 265.225 99.8733C265.285 102.386 265.551 104.72 265.881 107.129C266.085 108.612 266.905 110.726 266.943 111.803C267.081 115.817 267.259 119.769 267.303 123.788C267.371 129.661 267.371 135.939 267.077 141.801C267.043 142.485 266.227 142.835 265.987 143.477C265.077 145.907 264.315 147.251 263.731 149.781C263.423 151.115 263.413 152.551 262.839 153.795C262.487 154.559 260.917 155.185 260.651 155.983C260.061 157.759 260.785 159.545 260.655 161.761C260.545 163.669 259.755 164.765 258.961 166.539C258.417 167.751 257.533 169.641 257.197 170.905C256.831 172.277 257.489 173.781 257.087 175.143C256.875 175.855 255.903 176.199 255.749 176.927C255.363 178.745 256.083 180.729 255.525 182.501C255.211 183.505 254.993 183.359 254.035 183.791C253.355 184.095 251.571 184.441 251.469 183.701C251.037 180.597 251.911 178.441 251.419 175.343C250.843 171.719 249.327 169.515 248.413 165.959C247.969 164.233 248.763 161.113 247.943 159.531C246.467 156.681 241.741 155.529 241.947 152.327C242.145 149.229 243.997 147.213 245.883 144.693C247.171 142.967 248.009 140.149 248.811 138.183C249.401 136.733 249.745 135.035 249.771 133.605C249.811 131.471 249.233 130.542 247.617 129.214C244.241 126.44 238.785 123.903 234.583 121.86C233.967 121.561 233.245 122.736 233.245 123.422C233.245 124.107 234.047 124.64 234.127 125.319C234.361 127.318 233.151 129.391 234.017 131.206C234.931 133.124 238.537 133.683 238.003 135.738C237.643 137.114 237.305 137.599 236.137 138.271C235.429 138.679 234.643 138.651 233.815 138.689C231.331 138.803 228.777 137.923 226.377 138.431C223.771 138.983 221.439 140.187 219.031 141.387C217.437 142.183 215.807 143.233 214.043 143.179ZM236.011 111.999C235.989 110.031 235.941 108.095 235.945 106.16C235.949 104.452 235.991 102.743 236.125 101.014C236.213 99.8911 237.241 99.0339 237.373 97.9155C237.595 96.0661 236.459 93.8467 236.977 92.0683C237.185 91.3465 239.015 92.0703 239.429 91.4635C239.565 91.2647 239.843 90.1071 240.305 89.1199C240.583 88.5277 241.161 87.9961 241.161 87.7693C241.161 87.4387 241.139 85.0909 241.387 83.0567C241.531 81.8759 241.713 80.8786 241.893 80.8708C242.071 80.8628 242.251 81.8418 242.877 82.6562C243.597 83.5932 243.841 84.5227 244.471 85.5137C244.843 86.0985 245.243 86.787 245.857 87.0254C246.639 87.3294 247.575 86.9017 248.353 87.2157C248.935 87.4503 249.077 88.3637 249.601 88.7275C249.955 88.9737 250.767 88.5049 250.849 88.9543C251.219 90.9793 250.899 93.6892 251.221 95.7234C251.299 96.211 252.377 95.9843 252.401 96.4793C252.565 100.022 252.647 103.57 252.635 107.118C252.625 110.249 252.543 113.381 252.381 116.51C252.337 117.402 249.981 117.464 249.323 116.963C248.051 115.994 247.245 114.869 245.581 114.469C244.887 114.303 244.921 113.204 244.263 112.984C242.803 112.498 240.961 112.377 239.435 112.377C238.439 112.377 237.001 112.728 236.011 112.603C235.829 112.581 236.013 112.199 236.011 111.999ZM283.375 50.9383C283.379 52.9765 283.597 55.1849 283.603 57.3191C283.613 60.0657 283.413 62.5262 283.423 65.2948C283.433 68.243 283.653 71.4997 283.653 74.3829C283.653 76.7265 283.225 81.2312 283.407 83.1778C283.639 85.6806 283.777 86.1142 287.199 86.1142C288.855 86.1142 291.099 84.4157 292.753 82.6991C293.885 81.5241 293.715 79.4957 294.149 78.6183C294.789 77.3287 295.883 76.149 296.111 74.6518C296.403 72.726 295.699 71.1363 296.983 69.9045C297.489 69.4173 297.967 63.8877 297.967 62.6709C297.967 60.9365 296.145 58.3645 294.051 56.0633C292.619 54.4887 290.901 53.0755 290.169 51.9969C288.827 50.0221 287.823 49.1557 286.233 48.8005C283.329 48.1519 283.373 48.4185 283.375 50.9383ZM268.043 159.471C267.501 161.611 269.149 162.485 271.099 163.745C273.045 165.005 275.297 166.653 277.417 168.391C281.005 171.331 283.447 176.697 285.781 181.981C286.983 180.703 286.135 174.747 286.809 171.179C286.953 170.415 287.777 169.863 287.855 169.089C288.131 166.315 288.199 163.493 287.855 160.727C287.725 159.695 286.727 158.941 286.461 157.939C286.251 157.153 286.301 156.295 286.461 155.499C286.655 154.527 287.417 153.699 287.505 152.711C287.769 149.819 287.941 146.871 287.505 144.001C287.341 142.917 285.681 142.305 285.763 141.213C285.833 140.309 287.787 140.375 287.855 139.471C288.045 136.881 287.147 134.381 286.827 131.805C286.103 126.013 285.681 120.188 285.083 114.382C284.869 112.29 284.033 110.183 284.387 108.11C285.477 105.282 286.473 102.377 287.523 100.096C288.035 99.4235 288.711 100.737 289.231 101.403C290.929 103.571 293.185 106.255 293.673 108.964C294.271 112.287 292.471 115.227 292.855 118.581C292.967 119.56 294.475 119.384 294.823 120.306C296.487 124.709 297.839 129.261 298.657 133.896C299.589 139.177 299.889 144.563 300.051 149.925C300.121 152.257 300.021 154.657 299.353 156.893C298.401 160.087 296.417 162.633 295.433 165.719C294.403 168.947 294.071 169.911 297.487 169.909C298.839 169.907 300.417 169.961 301.461 170.483C304.257 171.881 305.411 175.105 308.065 176.755C308.639 177.111 309.389 177.605 310.179 178.047C313.943 180.155 314.357 178.699 315.141 175.403C316.175 171.045 316.437 167.115 317.107 162.817C317.449 160.637 317.377 158.401 317.473 156.197C317.609 153.055 317.845 149.929 317.683 146.787C317.609 145.321 317.617 143.717 316.655 142.607C315.933 141.773 313.803 142.625 313.519 141.561C313.129 140.103 315.233 138.889 315.261 137.379C314.685 133.305 314.157 129.66 314.089 125.645C314.011 120.911 312.997 123.293 311.427 121.438C310.479 120.317 310.183 119.328 310.035 117.867C309.597 113.59 310.217 108.857 309.563 104.608C309.271 102.708 308.383 100.834 307.125 99.3815C306.669 98.8549 305.833 99.6383 305.521 99.0153C304.999 97.9715 306.603 97.2569 305.991 96.2629C304.569 93.9537 301.593 92.1911 299.337 90.6877C298.661 90.2371 297.471 91.2625 296.897 90.6877C296.323 90.1129 296.337 88.3483 296.897 87.7605C300.915 87.1787 302.983 85.2868 304.945 83.0218C307.607 79.9512 308.909 76.5283 310.243 72.6905C310.859 70.9215 310.071 68.8541 310.277 66.9931C310.659 63.5493 312.465 60.4219 311.863 57.0097C310.989 52.0475 308.543 47.6007 305.731 43.4201C304.169 41.0993 301.743 39.0423 299.215 37.8449C297.105 36.8457 295.339 37.6817 293.099 37.0263C290.505 36.2675 288.427 34.8165 285.781 34.2741C283.721 33.8517 281.559 34.7113 279.509 34.2387C278.229 33.9435 278.021 32.5046 276.721 32.305C275.825 32.167 274.909 33.4655 274.005 33.5419C267.755 34.0713 262.625 32.8607 256.405 33.6813C255.477 33.8039 255.741 34.8389 256.511 35.3713C257.661 36.1671 259.409 35.7741 260.693 36.3295C262.997 37.3279 264.769 38.6701 266.477 40.5109C267.891 42.0333 268.467 43.7266 269.751 46.086C270.279 47.0532 271.797 45.196 272.889 45.0406C274.267 44.8438 275.225 44.8068 276.095 45.8946C276.877 46.8704 275.259 48.1709 274.337 49.0127C272.471 50.7135 271.201 51.6143 269.551 52.7435C268.423 53.5165 266.425 54.2104 265.587 55.7204C263.727 59.0704 265.933 62.8802 266.649 66.6446C266.911 68.0176 267.211 69.3599 267.523 70.7217C268.535 75.1495 268.195 78.8347 268.811 83.3349C269.011 84.7895 270.043 86.0569 270.205 87.5163C270.397 89.2511 270.085 90.5291 270.345 92.2551C270.453 92.9899 271.055 93.7689 271.251 94.4853C272.119 97.6717 272.883 101.674 272.993 104.974C273.349 115.771 272.709 126.348 273.253 137.137C273.303 138.119 274.777 138.507 274.979 139.471C275.293 140.965 274.297 142.681 273.795 144.123C271.733 150.027 269.315 154.445 268.043 159.471Z" fill="#0566B0"/>
<path d="M364.077 34.4827H363.767V36.0299H364.199C364.505 36.0299 364.741 35.9643 364.899 35.8301C365.057 35.6959 365.137 35.5015 365.137 35.2441C365.137 34.9813 365.053 34.7895 364.883 34.6663C364.713 34.5431 364.445 34.4827 364.077 34.4827ZM364.389 33.2067C365.319 33.2067 366.027 33.3709 366.515 33.6967C367.005 34.0227 367.249 34.4991 367.249 35.1235C367.249 35.5425 367.133 35.9013 366.903 36.2079C366.673 36.5121 366.351 36.7365 365.931 36.8817L367.361 39.7271H365.121L363.967 37.2269H363.767V39.7271H361.715V33.2067H364.389ZM369.119 36.6023C369.119 35.9615 368.999 35.3509 368.757 34.7675C368.517 34.1841 368.175 33.6693 367.725 33.2203C367.259 32.7547 366.739 32.4041 366.165 32.1659C365.591 31.9277 364.979 31.8099 364.327 31.8099C363.667 31.8099 363.053 31.9249 362.481 32.1577C361.909 32.3903 361.401 32.7355 360.959 33.1875C360.499 33.6529 360.145 34.1787 359.901 34.7675C359.655 35.3563 359.531 35.9671 359.531 36.6023C359.531 37.2405 359.651 37.8485 359.895 38.4261C360.139 39.0069 360.487 39.5245 360.941 39.9791C361.401 40.4391 361.919 40.7897 362.497 41.0333C363.075 41.2771 363.683 41.3977 364.327 41.3977C364.963 41.3977 365.573 41.2743 366.157 41.0279C366.743 40.7841 367.271 40.4283 367.741 39.9627C368.193 39.5191 368.539 39.0123 368.771 38.4427C369.005 37.8731 369.119 37.2623 369.119 36.6023ZM364.311 30.5749C365.137 30.5749 365.921 30.7255 366.655 31.0239C367.389 31.3223 368.043 31.7605 368.615 32.3329C369.171 32.8943 369.599 33.5433 369.903 34.2801C370.203 35.0195 370.355 35.7944 370.355 36.6078C370.355 37.432 370.207 38.2017 369.911 38.9221C369.613 39.6423 369.183 40.2777 368.615 40.8281C368.021 41.4057 367.353 41.8495 366.611 42.1645C365.869 42.4767 365.099 42.6327 364.311 42.6327C363.513 42.6327 362.755 42.4793 362.031 42.1755C361.311 41.8713 360.659 41.4277 360.077 40.8445C359.499 40.2721 359.057 39.6203 358.753 38.8945C358.449 38.1661 358.297 37.4046 358.297 36.6078C358.297 35.8 358.449 35.0277 358.757 34.2881C359.065 33.5517 359.509 32.8889 360.093 32.3001C360.643 31.7387 361.279 31.3115 362.001 31.0157C362.721 30.7227 363.491 30.5749 364.311 30.5749Z" fill="#0566B0"/>
</svg>
